#!OML:ASF F:\VICON\USERDATA\INSTALL\Justin_Nancy\Justin_Nancy.ASF
:FULLY-SPECIFIED
:DEGREES
486
root 12.4183 17.2985 10.4622 86.1249 100.93 83.6284
lowerback 7.37865 1.65562 8.2277
upperback 0.00649096 3.26426 4.63233
thorax -3.97026 1.56724 -0.128851
lowerneck -17.3166 -4.48757 -8.81844
upperneck 22.3124 -4.62477 4.226
head 10.3188 -2.3055 2.33264
rclavicle -3.7123e-014 -6.55989e-014
rhumerus -27.0046 -8.84875 -80.5179
rradius 34.4651
rwrist 3.49178
rhand -13.9928 11.144
rfingers 7.12502
rthumb 12.1361 -18.484
lclavicle -3.7123e-014 -6.55989e-014
lhumerus -33.1543 15.2206 82.6419
lradius 22.0766
lwrist -12.9226
lhand -15.358 23.8686
lfingers 7.12502
lthumb 10.8195 53.5699
rfemur 15.035 6.59426 37.4854
rtibia 6.14298
rfoot -9.74214 -7.24532
rtoes 4.29579
lfemur -32.2509 -1.38387 -8.59358
ltibia 27.2785
lfoot -6.29613 1.65601
ltoes -9.6869
487
root 12.5679 17.3502 10.4052 83.718 99.3638 80.7029
lowerback 6.72807 1.52102 7.14164
upperback -0.134698 2.87772 4.12282
thorax -3.79344 1.38127 -0.00282944
lowerneck -17.293 -4.39498 -8.81688
upperneck 22.3333 -4.48564 4.18205
head 10.3106 -2.24678 2.33754
rclavicle -8.29926e-015 8.74653e-015
rhumerus -27.2365 -8.94279 -80.5559
rradius 34.561
rwrist 3.66589
rhand -13.995 11.1181
rfingers 7.12502
rthumb 12.134 -18.51
lclavicle -8.29926e-015 8.74653e-015
lhumerus -33.1981 15.6552 82.4807
lradius 21.764
lwrist -13.2539
lhand -16.6777 24.012
lfingers 7.12502
lthumb 9.54637 53.7758
rfemur 13.6759 6.72156 35.5279
rtibia 9.0254
rfoot -11.1587 -6.80179
rtoes 8.5623
lfemur -31.9458 -4.10812 -9.57213
ltibia 26.6846
lfoot -5.01075 2.77906
ltoes 0.724568
488
root 12.7159 17.3576 10.3405 78.1749 98.6418 75.292
lowerback 6.75433 1.16505 6.90433
upperback -0.11804 2.36207 3.8357
thorax -3.81161 1.12185 -0.122287
lowerneck -17.2102 -4.28217 -8.86119
upperneck 22.2764 -4.32371 4.19016
head 10.2638 -2.17576 2.37187
rclavicle 1.3418e-015 1.55052e-014
rhumerus -27.4709 -8.56162 -80.5862
rradius 34.7148
rwrist 3.53946
rhand -14.1338 11.1278
rfingers 7.12502
rthumb 12.0001 -18.5082
lclavicle 1.3418e-015 1.55052e-014
lhumerus -33.2352 16.3119 82.2915
lradius 21.5081
lwrist -13.5513
lhand -16.9396 23.8095
lfingers 7.12502
lthumb 9.29362 53.5847
rfemur 13.2369 6.27605 34.6027
rtibia 10.819
rfoot -10.7348 -7.61575
rtoes 2.00765
lfemur -31.5064 -4.89622 -10.8564
ltibia 26.5572
lfoot -3.66504 2.40194
ltoes 2.28624
489
root 12.8636 17.3949 10.3278 82.5864 96.7411 79.1885
lowerback 6.27854 1.70152 4.88486
upperback -0.330766 2.84139 3.38256
thorax -3.80688 1.37867 0.495031
lowerneck -16.9024 -4.41835 -8.92337
upperneck 22.3165 -4.53083 4.23482
head 10.2386 -2.272 2.37267
rclavicle -1.25731e-014 -6.63941e-014
rhumerus -27.8796 -9.10047 -80.2266
rradius 34.7523
rwrist 3.44429
rhand -13.9201 11.5569
rfingers 7.12502
rthumb 12.2061 -18.0669
lclavicle -1.25731e-014 -6.63941e-014
lhumerus -33.2142 16.0318 82.5431
lradius 21.1784
lwrist -13.9166
lhand -17.3012 23.9969
lfingers 7.12502
lthumb 8.94467 53.7873
rfemur 11.0081 6.77172 32.5673
rtibia 15.0003
rfoot -11.3323 -7.67044
rtoes -2.70318
lfemur -30.6688 -3.32277 -13.2464
ltibia 24.9622
lfoot -2.30722 1.54822
ltoes 1.41033
490
root 13.0021 17.4451 10.2734 69.5366 93.0942 65.719
lowerback 6.01524 1.9005 1.50118
upperback -0.551394 2.7559 2.1873
thorax -3.98096 1.37068 1.15924
lowerneck -16.6538 -4.58963 -8.92414
upperneck 22.482 -4.82908 4.39485
head 10.2776 -2.39077 2.39234
rclavicle -1.27222e-014 -3.33958e-014
rhumerus -28.2559 -10.1361 -79.918
rradius 34.5727
rwrist 3.6439
rhand -13.5022 12.162
rfingers 7.12502
rthumb 12.6091 -17.4374
lclavicle -1.27222e-014 -3.33958e-014
lhumerus -33.2058 15.4642 82.7091
lradius 20.9456
lwrist -13.495
lhand -17.5519 24.2368
lfingers 7.12502
lthumb 8.70278 54.0374
rfemur 9.39933 6.48369 28.0414
rtibia 18.4545
rfoot -12.3832 -6.78575
rtoes 0.844618
lfemur -29.7369 -3.25171 -17.8148
ltibia 23.5172
lfoot -1.43252 0.996553
ltoes 0.874108
491
root 13.1539 17.4625 10.2702 66.4794 92.2147 62.9717
lowerback 6.20247 2.00122 0.529098
upperback -0.468275 2.79968 1.86987
thorax -4.03045 1.40615 1.36583
lowerneck -16.5369 -4.59366 -8.72984
upperneck 22.5326 -4.93374 4.53418
head 10.2783 -2.40613 2.39745
rclavicle -2.17669e-014 -5.56597e-015
rhumerus -28.4319 -10.4815 -80.0861
rradius 34.3161
rwrist 3.62148
rhand -13.5998 12.0977
rfingers 7.12502
rthumb 12.5149 -17.5075
lclavicle -2.17669e-014 -5.56597e-015
lhumerus -33.1088 15.4795 82.309
lradius 20.7725
lwrist -13.0635
lhand -16.8057 23.9331
lfingers 7.12502
lthumb 9.42283 53.7025
rfemur 8.58008 6.83615 27.156
rtibia 21.7055
rfoot -12.7716 -6.49596
rtoes 3.1431
lfemur -28.2205 -2.26872 -19.1063
ltibia 22.2291
lfoot -0.473746 0.22963
ltoes -2.42966
492
root 13.3053 17.4685 10.2399 43.1811 92.2721 39.7497
lowerback 6.20742 1.65159 0.367679
upperback -0.536035 2.31073 1.66333
thorax -4.08992 1.16313 1.28912
lowerneck -16.4005 -4.54153 -8.8462
upperneck 22.6868 -4.86612 4.64857
head 10.3096 -2.37166 2.47132
rclavicle 2.52457e-014 1.27222e-014
rhumerus -28.7418 -10.4144 -80.2031
rradius 34.1706
rwrist 3.63991
rhand -13.6491 11.8105
rfingers 7.12502
rthumb 12.4675 -17.7976
lclavicle 2.52457e-014 1.27222e-014
lhumerus -33.304 16.6294 81.6223
lradius 20.5414
lwrist -14.7012
lhand -16.3252 24.1565
lfingers 7.12502
lthumb 9.88638 53.9043
rfemur 7.51298 5.91303 26.5745
rtibia 24.64
rfoot -12.3723 -6.4788
rtoes 0.965187
lfemur -27.1481 -1.59962 -20.2636
ltibia 21.089
lfoot 0.393164 -0.897
ltoes -4.23111
